<?xml version="1.0" encoding="iso-8859-1"?>
<!-- Generator: Adobe Illustrator 19.0.0, SVG Export Plug-In . SVG Version: 6.00 Build 0)  -->
<svg version="1.1" id="Capa_1" xmlns="http://www.w3.org/2000/svg" xmlns:xlink="http://www.w3.org/1999/xlink" x="0px" y="0px"
	 viewBox="0 0 512.001 512.001" style="enable-background:new 0 0 512.001 512.001;" xml:space="preserve">
<g>
	<g>
		<path d="M180.44,330.05c-0.13-0.64-0.32-1.27-0.57-1.87c-0.25-0.61-0.56-1.19-0.92-1.73c-0.36-0.55-0.78-1.06-1.24-1.52
			c-0.46-0.46-0.97-0.88-1.52-1.24c-0.54-0.36-1.12-0.67-1.73-0.92c-0.6-0.25-1.23-0.44-1.87-0.57c-3.25-0.66-6.7,0.41-9.02,2.73
			c-0.46,0.46-0.88,0.97-1.25,1.52c-0.36,0.54-0.67,1.12-0.92,1.73c-0.25,0.6-0.44,1.23-0.57,1.87s-0.19,1.3-0.19,1.95
			c0,0.65,0.06,1.31,0.19,1.96c0.13,0.63,0.32,1.26,0.57,1.87c0.25,0.6,0.56,1.18,0.92,1.72c0.37,0.55,0.79,1.06,1.25,1.52
			c1.86,1.86,4.43,2.93,7.07,2.93c0.65,0,1.31-0.06,1.95-0.19c0.64-0.13,1.27-0.32,1.87-0.57c0.61-0.25,1.19-0.56,1.73-0.92
			c0.55-0.37,1.06-0.79,1.52-1.25c0.46-0.46,0.88-0.97,1.24-1.52c0.36-0.54,0.67-1.12,0.92-1.72c0.25-0.61,0.44-1.24,0.57-1.87
			c0.13-0.65,0.2-1.31,0.2-1.96S180.57,330.69,180.44,330.05z"/>
	</g>
</g>
<g>
	<g>
		<path d="M255.51,154.521c-52.312,0-94.871,45.793-94.871,102.08V295.5c0,5.523,4.477,10,10,10c5.523,0,10-4.477,10-10v-38.899
			c0-45.259,33.587-82.08,74.871-82.08c5.523,0,10-4.477,10-10S261.033,154.521,255.51,154.521z"/>
	</g>
</g>
<g>
	<g>
		<path d="M390.381,374.066V256.601c0-63.174-39.342-116.85-93.571-135.268l7.325-67.101c0.902-8.493-0.272-16.867-3.395-24.217
			C292.993,11.782,275.24,0,255.51,0s-37.484,11.782-45.23,30.016c-3.123,7.351-4.296,15.725-3.391,24.246l7.322,67.072
			c-54.229,18.418-93.571,72.093-93.571,135.268v117.69c-18.185,4.425-31.725,20.849-31.725,40.375
			c0,22.91,18.639,41.549,41.549,41.549h72.605v2.363c0,29.457,23.965,53.422,53.422,53.422c29.457,0,53.422-23.965,53.422-53.422
			v-2.363h71.625c22.91,0,41.548-18.639,41.548-41.549C423.086,394.791,409.057,378.13,390.381,374.066z M228.688,37.836
			C233.291,27.001,243.819,20,255.51,20s22.219,7.001,26.822,17.836c1.796,4.227,2.458,9.166,1.917,14.255l-7.016,64.272
			c-7.074-1.212-14.33-1.842-21.724-1.842c-7.394,0-14.65,0.631-21.724,1.842l-7.012-64.243
			C226.23,47.002,226.892,42.063,228.688,37.836z M289.912,458.578c0,18.429-14.993,33.422-33.422,33.422
			s-33.422-14.993-33.422-33.422v-2.363h66.844V458.578z M381.537,436.215H130.463c-11.882,0-21.549-9.667-21.549-21.549
			c0-11.601,9.216-21.091,20.711-21.532c0.333,0.033,166.532-0.016,166.532-0.016c5.523,0,10-4.477,10-10s-4.477-10-10-10H140.639
			V256.601c0-67.315,51.531-122.08,114.871-122.08s114.871,54.765,114.871,122.08v126.584c0,5.523,4.477,10,10,10
			c0.391,0,0.777-0.023,1.156-0.067c11.882,0,21.548,9.667,21.548,21.548C403.085,426.547,393.419,436.215,381.537,436.215z"/>
	</g>
</g>
<g>
	<g>
		<path d="M347.96,381.16c-0.13-0.63-0.32-1.26-0.57-1.87c-0.25-0.6-0.56-1.18-0.92-1.72c-0.36-0.55-0.78-1.06-1.24-1.52
			c-0.46-0.46-0.98-0.88-1.52-1.25c-0.54-0.36-1.13-0.67-1.73-0.92c-0.6-0.25-1.23-0.44-1.87-0.57c-1.29-0.26-2.62-0.26-3.91,0
			c-0.64,0.13-1.26,0.32-1.87,0.57c-0.6,0.25-1.18,0.56-1.72,0.92c-0.55,0.37-1.06,0.79-1.52,1.25c-0.47,0.46-0.88,0.97-1.25,1.52
			c-0.36,0.54-0.67,1.12-0.92,1.72c-0.25,0.61-0.44,1.24-0.57,1.87c-0.13,0.65-0.19,1.31-0.19,1.96c0,0.65,0.06,1.31,0.19,1.95
			s0.32,1.27,0.57,1.87c0.25,0.61,0.56,1.19,0.92,1.73c0.37,0.55,0.78,1.06,1.25,1.52c0.46,0.46,0.97,0.88,1.52,1.24
			c0.54,0.36,1.12,0.67,1.72,0.92c0.61,0.25,1.23,0.44,1.87,0.57c0.65,0.13,1.31,0.2,1.96,0.2c0.65,0,1.31-0.07,1.95-0.2
			c0.64-0.13,1.27-0.32,1.87-0.57c0.6-0.25,1.19-0.56,1.73-0.92s1.06-0.78,1.52-1.24c0.46-0.46,0.88-0.97,1.24-1.52
			c0.36-0.54,0.67-1.12,0.92-1.73c0.25-0.6,0.44-1.23,0.57-1.87s0.2-1.3,0.2-1.95C348.16,382.47,348.09,381.81,347.96,381.16z"/>
	</g>
</g>
<g>
</g>
<g>
</g>
<g>
</g>
<g>
</g>
<g>
</g>
<g>
</g>
<g>
</g>
<g>
</g>
<g>
</g>
<g>
</g>
<g>
</g>
<g>
</g>
<g>
</g>
<g>
</g>
<g>
</g>
</svg>
