<?xml version="1.0" encoding="iso-8859-1"?>
<!-- Generator: Adobe Illustrator 19.0.0, SVG Export Plug-In . SVG Version: 6.00 Build 0)  -->
<svg version="1.1" id="Capa_1" xmlns="http://www.w3.org/2000/svg" xmlns:xlink="http://www.w3.org/1999/xlink" x="0px" y="0px"
	 viewBox="0 0 512 512" style="enable-background:new 0 0 512 512;" xml:space="preserve">
<g>
	<g>
		<path d="M384,0H42.667C19.136,0,0,19.136,0,42.667V256c0,23.531,19.136,42.667,42.667,42.667c5.888,0,10.667-4.779,10.667-10.667
			s-4.779-10.667-10.667-10.667c-11.765,0-21.333-9.568-21.333-21.333V42.667c0-11.765,9.568-21.333,21.333-21.333H384
			c11.765,0,21.333,9.568,21.333,21.333v128c0,5.888,4.768,10.667,10.667,10.667s10.667-4.779,10.667-10.667v-128
			C426.667,19.136,407.531,0,384,0z"/>
	</g>
</g>
<g>
	<g>
		<path d="M469.333,213.333H128c-23.531,0-42.667,19.136-42.667,42.667v213.333C85.333,492.864,104.469,512,128,512h341.333
			C492.864,512,512,492.864,512,469.333V256C512,232.469,492.864,213.333,469.333,213.333z M490.667,469.333
			c0,11.765-9.568,21.333-21.333,21.333H128c-11.765,0-21.333-9.568-21.333-21.333V256c0-11.765,9.568-21.333,21.333-21.333h341.333
			c11.765,0,21.333,9.568,21.333,21.333V469.333z"/>
	</g>
</g>
<g>
	<g>
		<path d="M416,53.333H10.667C4.779,53.333,0,58.112,0,64s4.779,10.667,10.667,10.667H416c5.899,0,10.667-4.779,10.667-10.667
			S421.899,53.333,416,53.333z"/>
	</g>
</g>
<g>
	<g>
		<path d="M416,117.333H10.667C4.779,117.333,0,122.112,0,128s4.779,10.667,10.667,10.667H416c5.899,0,10.667-4.779,10.667-10.667
			S421.899,117.333,416,117.333z"/>
	</g>
</g>
<g>
	<g>
		<path d="M202.667,277.333H160c-11.765,0-21.333,9.568-21.333,21.333V320c0,11.765,9.568,21.333,21.333,21.333h42.667
			c11.765,0,21.333-9.568,21.333-21.333v-21.333C224,286.901,214.432,277.333,202.667,277.333z M202.667,319.989L160,320v-21.333
			h42.667V319.989z"/>
	</g>
</g>
<g>
	<g>
		<path d="M416,266.667c-23.531,0-42.667,19.136-42.667,42.667C373.333,332.864,392.469,352,416,352
			c23.531,0,42.667-19.136,42.667-42.667C458.667,285.803,439.531,266.667,416,266.667z M416,330.667
			c-11.765,0-21.333-9.568-21.333-21.333c0-11.765,9.568-21.333,21.333-21.333c11.765,0,21.333,9.568,21.333,21.333
			C437.333,321.099,427.765,330.667,416,330.667z"/>
	</g>
</g>
<g>
	<g>
		<path d="M298.667,416H149.333c-5.888,0-10.667,4.779-10.667,10.667s4.779,10.667,10.667,10.667h149.333
			c5.899,0,10.667-4.779,10.667-10.667S304.565,416,298.667,416z"/>
	</g>
</g>
<g>
	<g>
		<path d="M373.333,416h-32c-5.899,0-10.667,4.779-10.667,10.667s4.768,10.667,10.667,10.667h32c5.899,0,10.667-4.779,10.667-10.667
			S379.232,416,373.333,416z"/>
	</g>
</g>
<g>
	<g>
		<path d="M448,416h-32c-5.899,0-10.667,4.779-10.667,10.667s4.768,10.667,10.667,10.667h32c5.899,0,10.667-4.779,10.667-10.667
			S453.899,416,448,416z"/>
	</g>
</g>
<g>
</g>
<g>
</g>
<g>
</g>
<g>
</g>
<g>
</g>
<g>
</g>
<g>
</g>
<g>
</g>
<g>
</g>
<g>
</g>
<g>
</g>
<g>
</g>
<g>
</g>
<g>
</g>
<g>
</g>
</svg>
