<?xml version="1.0" encoding="iso-8859-1"?>
<!-- Generator: Adobe Illustrator 19.0.0, SVG Export Plug-In . SVG Version: 6.00 Build 0)  -->
<svg version="1.1" id="Capa_1" xmlns="http://www.w3.org/2000/svg" xmlns:xlink="http://www.w3.org/1999/xlink" x="0px" y="0px"
	 viewBox="0 0 512.001 512.001" style="enable-background:new 0 0 512.001 512.001;" xml:space="preserve">
<g>
	<g>
		<path d="M148.95,173.37c-0.13-0.64-0.32-1.27-0.57-1.88c-0.25-0.6-0.56-1.18-0.92-1.72c-0.36-0.55-0.78-1.06-1.24-1.52
			c-0.46-0.46-0.97-0.88-1.52-1.25c-0.54-0.35-1.12-0.66-1.73-0.91c-0.6-0.25-1.23-0.45-1.87-0.57c-1.29-0.26-2.61-0.26-3.9,0
			c-0.64,0.12-1.27,0.32-1.88,0.57c-0.6,0.25-1.18,0.56-1.72,0.91c-0.55,0.37-1.06,0.79-1.52,1.25c-0.46,0.46-0.88,0.97-1.24,1.52
			c-0.36,0.54-0.67,1.12-0.92,1.72c-0.25,0.61-0.45,1.24-0.57,1.88c-0.13,0.64-0.2,1.3-0.2,1.95c0,2.63,1.07,5.21,2.93,7.07
			c0.46,0.46,0.97,0.88,1.52,1.24c0.54,0.36,1.12,0.67,1.72,0.92c0.61,0.25,1.24,0.45,1.88,0.57c0.64,0.13,1.3,0.2,1.95,0.2
			c2.63,0,5.21-1.07,7.07-2.93c0.46-0.46,0.88-0.97,1.24-1.52c0.36-0.54,0.67-1.12,0.92-1.73c0.25-0.6,0.44-1.23,0.57-1.87
			c0.13-0.64,0.2-1.3,0.2-1.95C149.15,174.67,149.08,174.01,148.95,173.37z"/>
	</g>
</g>
<g>
	<g>
		<path d="M374.891,165.53c-35.851-7.472-76.963-11.422-118.891-11.422c-27.638,0-54.779,1.696-80.669,5.04
			c-5.478,0.707-9.345,5.721-8.637,11.198c0.707,5.478,5.717,9.345,11.198,8.637c25.043-3.234,51.322-4.874,78.107-4.874
			c40.58,0,80.281,3.804,114.811,11.001c0.689,0.143,1.374,0.212,2.05,0.212c4.637,0,8.797-3.244,9.781-7.962
			C383.768,171.953,380.298,166.657,374.891,165.53z"/>
	</g>
</g>
<g>
	<g>
		<path d="M457.358,278.22c-0.129-0.64-0.319-1.26-0.569-1.87c-0.25-0.6-0.561-1.18-0.92-1.72c-0.36-0.55-0.78-1.06-1.24-1.52
			c-0.46-0.46-0.97-0.88-1.521-1.25c-0.54-0.36-1.119-0.67-1.729-0.92c-0.599-0.25-1.23-0.44-1.87-0.57c-1.29-0.26-2.62-0.26-3.91,0
			c-0.63,0.13-1.26,0.32-1.87,0.57c-0.6,0.25-1.18,0.56-1.72,0.92c-0.55,0.37-1.06,0.79-1.52,1.25c-0.46,0.46-0.881,0.97-1.25,1.52
			c-0.36,0.54-0.671,1.12-0.921,1.72c-0.25,0.61-0.439,1.23-0.569,1.87c-0.129,0.65-0.19,1.3-0.19,1.96c0,0.65,0.06,1.31,0.19,1.95
			s0.319,1.27,0.569,1.87c0.25,0.6,0.561,1.19,0.921,1.73c0.369,0.55,0.79,1.06,1.25,1.52c0.46,0.46,0.97,0.88,1.52,1.24
			c0.54,0.36,1.12,0.67,1.72,0.92c0.61,0.25,1.24,0.44,1.87,0.57c0.65,0.13,1.311,0.2,1.96,0.2c0.651,0,1.311-0.07,1.95-0.2
			c0.64-0.13,1.271-0.32,1.87-0.57s1.189-0.56,1.729-0.92c0.551-0.36,1.061-0.78,1.521-1.24c0.46-0.46,0.88-0.97,1.24-1.52
			c0.36-0.54,0.67-1.13,0.92-1.73c0.25-0.6,0.439-1.23,0.569-1.87c0.131-0.64,0.2-1.3,0.2-1.95
			C457.558,279.52,457.489,278.87,457.358,278.22z"/>
	</g>
</g>
<g>
	<g>
		<path d="M505.973,130.997l-246-106.486c-2.522-1.091-5.378-1.098-7.902-0.018l-246,105.11c-3.726,1.592-6.123,5.274-6.07,9.325
			c0.052,4.051,2.543,7.67,6.309,9.165l83.216,33.04V316.06c0,3.723,2.068,7.138,5.369,8.863c3.299,1.726,7.284,1.473,10.341-0.653
			c17.487-12.162,38.034-18.591,59.421-18.591c33.069,0,63.449,15.182,83.35,41.653c1.889,2.513,4.85,3.991,7.993,3.991
			c3.144,0,6.104-1.478,7.993-3.991c19.9-26.471,50.28-41.653,83.35-41.653c19.663,0,38.614,5.434,55.131,15.76v22.483
			c-14.834-13.679-34.638-22.045-56.359-22.045c-42.501,0-77.663,32.029-82.617,73.218h-14.995
			c-4.955-41.19-40.116-73.218-82.617-73.218c-45.885,0-83.214,37.332-83.214,83.219c0,45.886,37.33,83.217,83.214,83.217
			c42.501,0,77.662-32.029,82.617-73.218h14.995c4.954,41.189,40.116,73.218,82.617,73.218c45.885,0,83.215-37.331,83.215-83.217
			c0-7.229-0.927-14.245-2.667-20.937h55.98c5.522,0,10-4.477,10-10V220.292c0-3.201-1.532-6.208-4.122-8.09l-30.962-22.496v-21.399
			l48.087-18.82c3.773-1.477,6.282-5.083,6.354-9.135C512.07,136.301,509.69,132.607,505.973,130.997z M165.885,468.312
			c-34.856,0-63.214-28.359-63.214-63.217c0-34.859,28.358-63.219,63.214-63.219s63.214,28.36,63.214,63.219
			C229.099,439.952,200.742,468.312,165.885,468.312z M402.474,298.548c-17.035-8.46-35.797-12.871-55.131-12.871
			c-35.217,0.001-67.871,14.441-91.343,40.018c-23.472-25.577-56.126-40.017-91.343-40.017c-19.333,0-38.096,4.411-55.131,12.871
			V151.922c41.875-11.268,93.526-17.439,146.474-17.439s104.6,6.171,146.474,17.439V298.548z M346.114,468.312
			c-34.857,0-63.215-28.359-63.215-63.217c0-34.859,28.358-63.219,63.215-63.219c34.856,0,63.215,28.36,63.215,63.219
			C409.329,439.952,380.971,468.312,346.114,468.312z M415.27,134.738c-44.842-13.061-101.404-20.254-159.27-20.254
			c-57.865,0-114.428,7.193-159.271,20.253c-4.269,1.243-7.204,5.155-7.204,9.601v15.276l-53.281-21.155l219.729-93.885
			l181.584,78.602v31.482l-15.084,5.904v-16.223C422.473,139.893,419.538,135.981,415.27,134.738z M437.557,176.134v13.572
			l-15.084,10.96v-18.628L437.557,176.134z M472.641,364.158h-50.168v-32.896h50.168V364.158z M472.641,225.387v85.874h-50.168
			v-85.874l15.084-10.959v29.591c0,5.523,4.478,10,10,10c5.522,0,10-4.477,10-10v-29.591L472.641,225.387z M457.557,146.83v-14.997
			l18.194,7.876L457.557,146.83z"/>
	</g>
</g>
<g>
	<g>
		<path d="M146.18,364.737c-3.905-3.905-10.237-3.904-14.142,0.001l-11.144,11.145c-3.905,3.905-3.904,10.237,0.001,14.142
			c1.953,1.953,4.512,2.929,7.071,2.929s5.118-0.977,7.071-2.93l11.144-11.145C150.086,374.974,150.085,368.642,146.18,364.737z"/>
	</g>
</g>
<g>
	<g>
		<path d="M175.402,377.121c-3.905-3.906-10.237-3.905-14.142,0l-31.204,31.205c-3.905,3.905-3.904,10.237,0.001,14.142
			c1.953,1.953,4.512,2.929,7.071,2.929c2.559,0,5.119-0.976,7.072-2.929l31.203-31.205
			C179.308,387.358,179.307,381.027,175.402,377.121z"/>
	</g>
</g>
<g>
	<g>
		<path d="M332.065,364.737c-3.907-3.905-10.237-3.905-14.143,0l-11.145,11.145c-3.905,3.906-3.905,10.238,0,14.143
			c1.953,1.953,4.511,2.929,7.071,2.929c2.559,0,5.118-0.976,7.072-2.929l11.145-11.145
			C335.97,374.974,335.97,368.642,332.065,364.737z"/>
	</g>
</g>
<g>
	<g>
		<path d="M361.286,377.121c-3.906-3.906-10.236-3.905-14.142,0l-31.204,31.205c-3.905,3.905-3.905,10.237,0,14.142
			c1.953,1.953,4.511,2.929,7.071,2.929c2.559,0,5.118-0.976,7.071-2.929l31.204-31.205
			C365.191,387.358,365.191,381.026,361.286,377.121z"/>
	</g>
</g>
<g>
</g>
<g>
</g>
<g>
</g>
<g>
</g>
<g>
</g>
<g>
</g>
<g>
</g>
<g>
</g>
<g>
</g>
<g>
</g>
<g>
</g>
<g>
</g>
<g>
</g>
<g>
</g>
<g>
</g>
</svg>
