<?xml version="1.0" encoding="iso-8859-1"?>
<!-- Generator: Adobe Illustrator 19.0.0, SVG Export Plug-In . SVG Version: 6.00 Build 0)  -->
<svg version="1.1" id="Capa_1" xmlns="http://www.w3.org/2000/svg" xmlns:xlink="http://www.w3.org/1999/xlink" x="0px" y="0px"
	 viewBox="0 0 512.002 512.002" style="enable-background:new 0 0 512.002 512.002;" xml:space="preserve">
<g>
	<g>
		<path d="M393.821,421.401c-0.13-0.63-0.32-1.26-0.57-1.87c-0.25-0.6-0.56-1.18-0.92-1.72c-0.37-0.55-0.78-1.06-1.24-1.52
			c-0.47-0.46-0.98-0.88-1.53-1.25c-0.54-0.36-1.12-0.67-1.72-0.92c-0.61-0.25-1.24-0.44-1.87-0.57c-1.29-0.26-2.621-0.26-3.91,0
			c-0.64,0.13-1.27,0.32-1.87,0.57c-0.61,0.25-1.19,0.56-1.73,0.92c-0.55,0.37-1.06,0.79-1.52,1.25c-0.46,0.46-0.88,0.97-1.24,1.52
			c-0.36,0.54-0.67,1.12-0.92,1.72c-0.25,0.61-0.44,1.24-0.57,1.87c-0.13,0.65-0.2,1.311-0.2,1.96c0,0.65,0.07,1.31,0.2,1.95
			c0.13,0.641,0.32,1.271,0.57,1.87s0.56,1.19,0.92,1.73c0.36,0.55,0.78,1.06,1.24,1.52c0.46,0.46,0.98,0.88,1.52,1.24
			c0.54,0.36,1.12,0.67,1.73,0.92c0.6,0.25,1.23,0.439,1.87,0.57c0.64,0.13,1.3,0.199,1.95,0.199c0.66,0,1.31-0.069,1.96-0.199
			c0.63-0.13,1.26-0.32,1.87-0.57c0.6-0.25,1.18-0.561,1.72-0.92c0.55-0.36,1.06-0.78,1.52-1.24c0.46-0.46,0.88-0.97,1.25-1.52
			c0.36-0.54,0.67-1.12,0.92-1.73c0.25-0.6,0.44-1.229,0.57-1.87c0.13-0.64,0.19-1.3,0.19-1.95
			C394.011,422.712,393.951,422.051,393.821,421.401z"/>
	</g>
</g>
<g>
	<g>
		<path d="M342.58,413.359H127.988c-5.523,0-10,4.478-10,10c0,5.522,4.477,10,10,10H342.58c5.523,0,10-4.478,10-10
			C352.58,417.837,348.103,413.359,342.58,413.359z"/>
	</g>
</g>
<g>
	<g>
		<path d="M323.241,447.148H188.76c-5.523,0-10,4.478-10,10c0,5.522,4.477,10,10,10h134.482c5.523,0,10-4.477,9.999-10
			C333.241,451.626,328.764,447.148,323.241,447.148z"/>
	</g>
</g>
<g>
	<g>
		<path d="M422.946,0H89.056C71.349,0,56.943,14.406,56.943,32.113v469.889c0,5.522,4.477,10,10,10h378.116c5.523,0,10-4.478,10-10
			V32.113C455.059,14.406,440.653,0,422.946,0z M435.059,492.002H76.943v-97.755h358.116V492.002z M337.324,290.765
			c18.32-15.549,29.161-38.885,29.133-64.299v-0.618c0-39.236-10.054-71.773-29.075-94.091
			c-19.3-22.646-47.441-34.615-81.381-34.615s-62.081,11.97-81.381,34.615c-19.021,22.318-29.075,54.855-29.075,94.091v0.607
			c-0.028,25.422,10.813,48.762,29.133,64.31c-10.593,8.387-17.401,21.356-17.401,35.885v47.597h-40.415V59.919H395.14v314.328
			h-40.415V326.65C354.726,312.121,347.918,299.152,337.324,290.765z M266.984,271.377l6.448,16.349l-17.431,14.052l-17.432-14.052
			l6.449-16.35c0.975-2.47,0.926-5.226-0.133-7.659c-1.06-2.435-3.044-4.348-5.515-5.318c-17.568-6.896-28.919-23.541-28.919-42.403
			v-25.527H251.5c2.652,0,5.196-1.054,7.071-2.929l14.51-14.511l14.511,14.511c1.876,1.875,4.419,2.929,7.071,2.929h6.888v25.527
			c0,18.862-11.352,35.508-28.919,42.404c-2.472,0.971-4.456,2.884-5.515,5.318C266.058,266.151,266.009,268.907,266.984,271.377z
			 M249.724,322.407c1.832,1.477,4.054,2.215,6.276,2.215s4.444-0.738,6.276-2.215l26.684-21.511h20.01
			c14.201,0,25.754,11.553,25.754,25.754v47.597H177.276V326.65c0-14.201,11.553-25.754,25.754-25.754h20.01L249.724,322.407z
			 M316.057,281.446c-2.31-0.361-4.677-0.549-7.087-0.549h-16.733l-3.25-8.239c20.058-11.604,32.563-32.912,32.563-56.662v-35.527
			c0-5.523-4.477-10-10-10h-12.746l-18.653-18.653c-1.875-1.875-4.419-2.929-7.071-2.929c-2.652,0-5.196,1.054-7.071,2.929
			l-18.652,18.653H200.45c-5.523,0-10,4.477-10,10v35.527c0,23.75,12.505,45.057,32.563,56.661l-3.25,8.24H203.03
			c-2.41,0-4.777,0.188-7.088,0.549c-18.859-11.16-30.423-31.911-30.398-54.98v-0.618c0-69.084,32.97-108.706,90.456-108.706
			c57.486,0,90.456,39.622,90.456,108.706v0.629C346.481,249.536,334.917,270.286,316.057,281.446z M435.06,374.247h-19.92V49.919
			c0-5.522-4.477-10-10-10H106.862c-5.523,0-10,4.478-10,10v324.328H76.943V32.113c0-6.68,5.434-12.113,12.113-12.113h333.891
			c6.679,0,12.113,5.434,12.113,12.113V374.247z"/>
	</g>
</g>
<g>
</g>
<g>
</g>
<g>
</g>
<g>
</g>
<g>
</g>
<g>
</g>
<g>
</g>
<g>
</g>
<g>
</g>
<g>
</g>
<g>
</g>
<g>
</g>
<g>
</g>
<g>
</g>
<g>
</g>
</svg>
