<?xml version="1.0" encoding="iso-8859-1"?>
<!-- Generator: Adobe Illustrator 19.0.0, SVG Export Plug-In . SVG Version: 6.00 Build 0)  -->
<svg version="1.1" id="Capa_1" xmlns="http://www.w3.org/2000/svg" xmlns:xlink="http://www.w3.org/1999/xlink" x="0px" y="0px"
	 viewBox="0 0 511.998 511.998" style="enable-background:new 0 0 511.998 511.998;" xml:space="preserve">
<g>
	<g>
		<path d="M224.809,425.708c-0.13-0.64-0.32-1.27-0.57-1.87c-0.26-0.61-0.56-1.19-0.92-1.73c-0.37-0.55-0.79-1.06-1.25-1.52
			c-0.46-0.46-0.97-0.88-1.52-1.24c-0.54-0.36-1.12-0.67-1.72-0.92c-0.61-0.25-1.24-0.44-1.88-0.57c-1.28-0.26-2.61-0.26-3.9,0
			c-0.64,0.13-1.27,0.32-1.87,0.57c-0.61,0.25-1.19,0.56-1.73,0.92c-0.55,0.36-1.06,0.78-1.52,1.24c-0.46,0.46-0.88,0.97-1.24,1.52
			c-0.36,0.54-0.67,1.12-0.92,1.73c-0.25,0.6-0.44,1.23-0.57,1.87c-0.13,0.64-0.2,1.3-0.2,1.95c0,0.65,0.07,1.31,0.2,1.96
			c0.13,0.63,0.32,1.26,0.57,1.87c0.25,0.6,0.56,1.18,0.92,1.72c0.36,0.55,0.78,1.06,1.24,1.52c0.46,0.46,0.97,0.88,1.52,1.25
			c0.54,0.36,1.12,0.67,1.73,0.92c0.6,0.25,1.23,0.44,1.87,0.57s1.3,0.19,1.95,0.19c0.65,0,1.311-0.059,1.95-0.19
			c0.64-0.13,1.27-0.32,1.88-0.57c0.6-0.25,1.18-0.56,1.72-0.92c0.55-0.37,1.06-0.79,1.52-1.25c0.46-0.46,0.88-0.97,1.25-1.52
			c0.36-0.54,0.66-1.12,0.92-1.72c0.25-0.61,0.44-1.24,0.57-1.87c0.13-0.65,0.19-1.31,0.19-1.96
			C224.999,427.008,224.939,426.349,224.809,425.708z"/>
	</g>
</g>
<g>
	<g>
		<path d="M306.8,82.379c-0.12-0.63-0.32-1.26-0.57-1.87c-0.25-0.6-0.56-1.18-0.92-1.72c-0.36-0.55-0.78-1.06-1.24-1.52
			c-0.46-0.46-0.97-0.88-1.52-1.25c-0.54-0.36-1.12-0.67-1.73-0.92c-0.6-0.25-1.23-0.44-1.87-0.57c-1.29-0.26-2.61-0.26-3.9,0
			c-0.64,0.13-1.27,0.32-1.87,0.57c-0.61,0.25-1.19,0.56-1.73,0.92c-0.55,0.37-1.06,0.79-1.52,1.25c-0.46,0.46-0.88,0.97-1.24,1.52
			c-0.36,0.54-0.67,1.12-0.92,1.72c-0.25,0.61-0.45,1.24-0.57,1.87c-0.13,0.65-0.2,1.31-0.2,1.96c0,0.65,0.07,1.31,0.2,1.95
			c0.12,0.64,0.32,1.27,0.57,1.87c0.25,0.61,0.56,1.191,0.92,1.73c0.36,0.55,0.78,1.06,1.24,1.52c0.46,0.46,0.97,0.88,1.52,1.24
			c0.54,0.36,1.12,0.67,1.73,0.92c0.6,0.25,1.23,0.44,1.87,0.57s1.3,0.2,1.95,0.2c0.649,0,1.31-0.069,1.95-0.2
			c0.64-0.13,1.27-0.32,1.87-0.57c0.61-0.25,1.19-0.56,1.73-0.92c0.55-0.36,1.06-0.78,1.52-1.24c0.46-0.46,0.88-0.97,1.24-1.52
			c0.36-0.54,0.67-1.12,0.92-1.73c0.25-0.6,0.45-1.23,0.57-1.87c0.13-0.64,0.2-1.3,0.2-1.95C307,83.689,306.93,83.029,306.8,82.379z
			"/>
	</g>
</g>
<g>
	<g>
		<path d="M473.521,111.195V48.478c0-5.523-4.477-10-10-10l-270.239,0.001C191.912,17.031,174.026,0,152.238,0
			s-39.673,17.03-41.043,38.478H48.478c-5.523,0-10,4.477-10,10v270.238C17.03,320.086,0,337.972,0,359.76
			c0,21.788,17.03,39.673,38.478,41.043v62.717c0,5.523,4.477,10,10,10l270.239-0.001c1.37,21.448,19.255,38.478,41.043,38.478
			c21.788,0,39.673-17.03,41.043-38.478h62.717c5.523,0,10-4.477,10-10V193.281c21.448-1.37,38.478-19.255,38.478-41.043
			C511.998,130.451,494.969,112.565,473.521,111.195z M58.478,58.479h62.632c5.523,0,10-4.477,10-10v-7.35
			c0-11.65,9.478-21.128,21.128-21.128c11.65,0,21.128,9.478,21.128,21.128v7.35c0,5.523,4.477,10,10,10H246v52.716
			c-21.448,1.37-38.478,19.255-38.478,41.043c0,21.788,17.029,39.673,38.478,41.043V246h-62.633c-5.523,0-10,4.477-10,10v7.35
			c0,11.65-9.478,21.128-21.128,21.128s-21.128-9.478-21.128-21.128V256c0-5.523-4.477-10-10-10H58.478V58.479z M255.999,380.888
			c-5.523,0-10,4.477-10,10v62.632H58.478v-15.86h114.957c5.523,0,10-4.477,10-10s-4.477-10-10-10H58.478v-26.772
			c0-5.523-4.477-10-10-10h-7.35c-11.65,0-21.128-9.478-21.128-21.128c0-11.65,9.478-21.128,21.128-21.128h7.35
			c5.523,0,10-4.477,10-10V266h52.717c1.37,21.448,19.255,38.478,41.043,38.478c21.788,0,39.674-17.03,41.044-38.478h52.717v62.633
			c0,5.523,4.477,10,10,10h7.35c11.65,0,21.128,9.478,21.128,21.128c0,11.65-9.478,21.128-21.128,21.128H255.999z M453.521,453.519
			h-62.632c-5.523,0-10,4.477-10,10v7.35c0,11.65-9.478,21.128-21.128,21.128c-11.65,0-21.128-9.478-21.128-21.128v-7.35
			c0-5.523-4.477-10-10-10h-62.634v-52.716c21.448-1.37,38.478-19.255,38.478-41.043c0-21.788-17.029-39.673-38.478-41.043V266
			h62.634c5.523,0,10-4.477,10-10v-7.35c0-11.65,9.478-21.128,21.128-21.128c11.65,0,21.128,9.478,21.128,21.128V256
			c0,5.523,4.477,10,10,10h62.632V453.519z M470.871,173.365h-7.35c-5.523,0-10,4.477-10,10v62.633h-52.717
			c-1.37-21.448-19.255-38.478-41.043-38.478c-21.788,0-39.673,17.03-41.043,38.478H266v-62.633c0-5.523-4.477-10-10-10h-7.35
			c-11.65,0-21.128-9.478-21.128-21.128s9.478-21.128,21.128-21.128H256c5.523,0,10-4.477,10-10V58.478h187.521v15.86H338.564
			c-5.523,0-10,4.477-10,10s4.477,10,10,10h114.957v26.772c0,5.523,4.477,10,10,10h7.35c11.65,0,21.128,9.478,21.128,21.128
			C491.999,163.888,482.521,173.365,470.871,173.365z"/>
	</g>
</g>
<g>
</g>
<g>
</g>
<g>
</g>
<g>
</g>
<g>
</g>
<g>
</g>
<g>
</g>
<g>
</g>
<g>
</g>
<g>
</g>
<g>
</g>
<g>
</g>
<g>
</g>
<g>
</g>
<g>
</g>
</svg>
